# xmcd CD database file
#
# Track frame offsets:
#	150
#	12943
#	30430
#	44827
#	65929
#	83236
#	94503
#	109090
#	122190
#	135777
#
# Disc length: 1964 seconds
#
# Revision: 0
# Processed by: cddbd v1.4PL0 Copyright (c) Steve Scherf et al.
# Submitted via: CDex 1.50
#
DISCID=8007aa0a
DTITLE=The Royal Garden Trio - The Royal Garden Trio
DYEAR=2002
DGENRE=Jazz
TTITLE0=I'll See You In My Dreams
TTITLE1=Royal Garden Blues
TTITLE2=Saturday Night Function
TTITLE3=Blue Drag
TTITLE4=September Song
TTITLE5=Limehouse Blues
TTITLE6=I Surrender Dear
TTITLE7=St Louis Blues
TTITLE8=Louisiana Fairy Tale
TTITLE9=I Found A New Baby
EXTD=YEAR: 2002
EXTT0=
EXTT1=
EXTT2=
EXTT3=
EXTT4=
EXTT5=
EXTT6=
EXTT7=
EXTT8=
EXTT9=
PLAYORDER=
